<?xml version="1.0" encoding="UTF-8" standalone="no"?>
<svg width="320px" height="568px" viewBox="0 0 320 568" version="1.1" xmlns="http://www.w3.org/2000/svg" xmlns:xlink="http://www.w3.org/1999/xlink" xmlns:sketch="http://www.bohemiancoding.com/sketch/ns">
    <!-- Generator: Sketch 3.3.2 (12043) - http://www.bohemiancoding.com/sketch -->
    <title>Account Sign Up Copy 3</title>
    <desc>Created with Sketch.</desc>
    <defs>
        <filter x="-50%" y="-50%" width="200%" height="200%" filterUnits="objectBoundingBox" id="filter-1">
            <feOffset dx="0" dy="2" in="SourceAlpha" result="shadowOffsetOuter1"></feOffset>
            <feGaussianBlur stdDeviation="2" in="shadowOffsetOuter1" result="shadowBlurOuter1"></feGaussianBlur>
            <feColorMatrix values="0 0 0 0 0   0 0 0 0 0   0 0 0 0 0  0 0 0 0.35 0" in="shadowBlurOuter1" type="matrix" result="shadowMatrixOuter1"></feColorMatrix>
            <feMerge>
                <feMergeNode in="shadowMatrixOuter1"></feMergeNode>
                <feMergeNode in="SourceGraphic"></feMergeNode>
            </feMerge>
        </filter>
        <filter x="-50%" y="-50%" width="200%" height="200%" filterUnits="objectBoundingBox" id="filter-2">
            <feOffset dx="0" dy="2" in="SourceAlpha" result="shadowOffsetOuter1"></feOffset>
            <feGaussianBlur stdDeviation="2" in="shadowOffsetOuter1" result="shadowBlurOuter1"></feGaussianBlur>
            <feColorMatrix values="0 0 0 0 0   0 0 0 0 0   0 0 0 0 0  0 0 0 0.35 0" in="shadowBlurOuter1" type="matrix" result="shadowMatrixOuter1"></feColorMatrix>
            <feMerge>
                <feMergeNode in="shadowMatrixOuter1"></feMergeNode>
                <feMergeNode in="SourceGraphic"></feMergeNode>
            </feMerge>
        </filter>
        <filter x="-50%" y="-50%" width="200%" height="200%" filterUnits="objectBoundingBox" id="filter-3">
            <feOffset dx="0" dy="2" in="SourceAlpha" result="shadowOffsetOuter1"></feOffset>
            <feGaussianBlur stdDeviation="2" in="shadowOffsetOuter1" result="shadowBlurOuter1"></feGaussianBlur>
            <feColorMatrix values="0 0 0 0 0   0 0 0 0 0   0 0 0 0 0  0 0 0 0.35 0" in="shadowBlurOuter1" type="matrix" result="shadowMatrixOuter1"></feColorMatrix>
            <feMerge>
                <feMergeNode in="shadowMatrixOuter1"></feMergeNode>
                <feMergeNode in="SourceGraphic"></feMergeNode>
            </feMerge>
        </filter>
        <filter x="-50%" y="-50%" width="200%" height="200%" filterUnits="objectBoundingBox" id="filter-4">
            <feOffset dx="0" dy="2" in="SourceAlpha" result="shadowOffsetOuter1"></feOffset>
            <feGaussianBlur stdDeviation="2" in="shadowOffsetOuter1" result="shadowBlurOuter1"></feGaussianBlur>
            <feColorMatrix values="0 0 0 0 0   0 0 0 0 0   0 0 0 0 0  0 0 0 0.35 0" in="shadowBlurOuter1" type="matrix" result="shadowMatrixOuter1"></feColorMatrix>
            <feMerge>
                <feMergeNode in="shadowMatrixOuter1"></feMergeNode>
                <feMergeNode in="SourceGraphic"></feMergeNode>
            </feMerge>
        </filter>
    </defs>
    <g id="Page-1" stroke="none" stroke-width="1" fill="none" fill-rule="evenodd" sketch:type="MSPage">
        <g id="Account-Sign-Up-Copy-3" sketch:type="MSArtboardGroup">
            <g id="Status-Bar-Black" sketch:type="MSLayerGroup" fill="#030303">
                <path d="M7.89333333,13 C9.18936155,13 10.24,11.7687831 10.24,10.25 C10.24,8.73121694 9.18936155,7.5 7.89333333,7.5 C6.59730512,7.5 5.54666667,8.73121694 5.54666667,10.25 C5.54666667,11.7687831 6.59730512,13 7.89333333,13 Z M13.8666667,13 C15.1626949,13 16.2133333,11.7687831 16.2133333,10.25 C16.2133333,8.73121694 15.1626949,7.5 13.8666667,7.5 C12.5706385,7.5 11.52,8.73121694 11.52,10.25 C11.52,11.7687831 12.5706385,13 13.8666667,13 Z M19.84,13 C21.1360282,13 22.1866667,11.7687831 22.1866667,10.25 C22.1866667,8.73121694 21.1360282,7.5 19.84,7.5 C18.5439718,7.5 17.4933333,8.73121694 17.4933333,10.25 C17.4933333,11.7687831 18.5439718,13 19.84,13 Z M25.8133333,13 C27.1093615,13 28.16,11.7687831 28.16,10.25 C28.16,8.73121694 27.1093615,7.5 25.8133333,7.5 C24.5173051,7.5 23.4666667,8.73121694 23.4666667,10.25 C23.4666667,11.7687831 24.5173051,13 25.8133333,13 Z M25.8133333,12.5 C26.8737201,12.5 27.7333333,11.4926407 27.7333333,10.25 C27.7333333,9.00735931 26.8737201,8 25.8133333,8 C24.7529466,8 23.8933333,9.00735931 23.8933333,10.25 C23.8933333,11.4926407 24.7529466,12.5 25.8133333,12.5 Z M31.7866667,13 C33.0826949,13 34.1333333,11.7687831 34.1333333,10.25 C34.1333333,8.73121694 33.0826949,7.5 31.7866667,7.5 C30.4906385,7.5 29.44,8.73121694 29.44,10.25 C29.44,11.7687831 30.4906385,13 31.7866667,13 Z M31.7866667,12.5 C32.8470534,12.5 33.7066667,11.4926407 33.7066667,10.25 C33.7066667,9.00735931 32.8470534,8 31.7866667,8 C30.7262799,8 29.8666667,9.00735931 29.8666667,10.25 C29.8666667,11.4926407 30.7262799,12.5 31.7866667,12.5 Z" id="Mobile-Signal" sketch:type="MSShapeGroup"></path>
                <text id="Carrier" sketch:type="MSTextLayer" font-family="Helvetica Neue" font-size="10.24" font-weight="normal" letter-spacing="0.200000003">
                    <tspan x="37.5466667" y="13.5">Sketch</tspan>
                </text>
                <path d="M82.0432391,12.4385043 C81.6011724,11.8454456 80.9406819,11.4689119 80.2027205,11.4689119 C79.4786195,11.4689119 78.8291067,11.8314341 78.387341,12.4053177 L80.2325667,14.5 L82.0432391,12.4385043 Z M83.9027169,10.3214425 C82.9822117,9.19174563 81.6652277,8.48445596 80.2027205,8.48445596 C78.752659,8.48445596 77.4456545,9.17975893 76.5263102,10.2926936 L77.4564682,11.3486 C78.1373482,10.5053708 79.1156463,9.97668394 80.2027205,9.97668394 C81.3029407,9.97668394 82.291738,10.518235 82.9735437,11.3793293 L83.9027169,10.3214425 L83.9027169,10.3214425 Z M85.76,8.20687933 C84.3630573,6.53943672 82.3898197,5.5 80.2027205,5.5 C78.0266755,5.5 76.0623357,6.52895605 74.6666667,8.18164431 L75.5964228,9.23709441 C76.7539881,7.85431655 78.389668,6.99222798 80.2027205,6.99222798 C82.0275222,6.99222798 83.672645,7.86552609 84.8314622,9.26404272 L85.76,8.20687933 Z" id="Wi-Fi" sketch:type="MSShapeGroup"></path>
                <text id="9:41-AM" sketch:type="MSTextLayer" font-family="Helvetica Neue" font-size="10.24" font-weight="normal" sketch:alignment="middle" letter-spacing="0.100000001">
                    <tspan x="140.059173" y="13.5">9:41 AM</tspan>
                </text>
                <text id="100%" sketch:type="MSTextLayer" font-family="Helvetica Neue" font-size="10.24" font-weight="normal" sketch:alignment="right">
                    <tspan x="264.51968" y="13.5">100%</tspan>
                </text>
                <path d="M295.906592,5.5 C295.074524,5.5 294.4,6.16802155 294.4,7.00530324 L294.4,13.4946968 C294.4,14.3260528 295.07208,15 295.906592,15 L312.093408,15 C312.925476,15 313.6,14.3319784 313.6,13.4946968 L313.6,7.00530324 C313.6,6.17394722 312.92792,5.5 312.093408,5.5 L295.906592,5.5 Z M314.026667,8.5 L314.026667,12 L314.666667,12 C315.020129,12 315.306667,11.7135803 315.306667,11.3580461 L315.306667,9.14195395 C315.306667,8.78741257 315.022593,8.5 314.666667,8.5 L314.026667,8.5 Z M295.826092,6 C295.274125,6 294.826667,6.45699692 294.826667,7.00844055 L294.826667,13.4915594 C294.826667,14.0485058 295.280182,14.5 295.826092,14.5 L312.173908,14.5 C312.725875,14.5 313.173333,14.0430031 313.173333,13.4915594 L313.173333,7.00844055 C313.173333,6.45149422 312.719818,6 312.173908,6 L295.826092,6 Z M295.758009,6.5 C295.479284,6.5 295.253333,6.71637201 295.253333,6.99209595 L295.253333,13.5079041 C295.253333,13.7796811 295.474514,14 295.758009,14 L312.241991,14 C312.520716,14 312.746667,13.783628 312.746667,13.5079041 L312.746667,6.99209595 C312.746667,6.72031886 312.525486,6.5 312.241991,6.5 L295.758009,6.5 Z" id="Battery" sketch:type="MSShapeGroup"></path>
            </g>
            <rect id="Rectangle-1" stroke="#000000" fill="#FFFFFF" filter="url(#filter-1)" sketch:type="MSShapeGroup" x="26" y="300" width="271" height="50"></rect>
            <text id="johndoe@gmail.com" sketch:type="MSTextLayer" font-family="Helvetica" font-size="16" font-weight="bold" fill="#000000">
                <tspan x="83" y="331">johndoe@gmail.com</tspan>
            </text>
            <rect id="Rectangle-1-Copy" stroke="#000000" fill="#FFFFFF" filter="url(#filter-2)" sketch:type="MSShapeGroup" x="25" y="202" width="271" height="50"></rect>
            <text id="John-Doe" sketch:type="MSTextLayer" font-family="Helvetica" font-size="16" font-weight="bold" fill="#000000">
                <tspan x="124" y="233">John Doe</tspan>
            </text>
            <text id="Username" sketch:type="MSTextLayer" font-family="Helvetica" font-size="13" font-weight="bold" fill="#9B9B9B">
                <tspan x="129" y="189">Username</tspan>
            </text>
            <text id="Email" sketch:type="MSTextLayer" font-family="Helvetica" font-size="13" font-weight="bold" fill="#9B9B9B">
                <tspan x="143" y="285">Email</tspan>
            </text>
            <g id="submit-button-copy" sketch:type="MSLayerGroup" transform="translate(25.000000, 469.000000)">
                <rect id="Rectangle-1-Copy-4" stroke="#000000" fill="#9B9B9B" filter="url(#filter-3)" sketch:type="MSShapeGroup" x="0" y="0.78125" width="271" height="48.4375" rx="11"></rect>
                <text id="Submit" sketch:type="MSTextLayer" font-family="Helvetica" font-size="16" font-weight="bold" sketch:alignment="middle" fill="#000000">
                    <tspan x="108.390625" y="30.5">Submit</tspan>
                </text>
            </g>
            <g id="submit-button-copy-2" sketch:type="MSLayerGroup" transform="translate(25.000000, 397.000000)">
                <rect id="Rectangle-1-Copy-4" stroke="#000000" fill="#D0011B" filter="url(#filter-4)" sketch:type="MSShapeGroup" x="0" y="0.78125" width="271" height="48.4375" rx="11"></rect>
                <text id="Upload-Photo" sketch:type="MSTextLayer" font-family="Helvetica" font-size="16" font-weight="bold" sketch:alignment="middle" fill="#000000">
                    <tspan x="95.0664062" y="30.5">Add Photo</tspan>
                </text>
            </g>
            <g id="noun_30194_cc-copy" sketch:type="MSLayerGroup" transform="translate(88.000000, 32.000000)" fill="#010101">
                <path d="M89.874989,36.6261412 C90.2547692,34.7927059 84.9916484,29.9907765 79.5702857,28.8809412 C74.1505055,27.7695294 69.4507253,28.3575529 69.0725275,30.1894118 C68.6943297,32.0212706 72.7817143,34.4080471 78.2014945,35.5178824 C83.6244396,36.6292941 89.499956,38.4595765 89.874989,36.6261412 L89.874989,36.6261412 Z M102.325451,60.5270118 C100.844308,61.9868235 103.145143,66.6878588 107.452484,71.0263059 C111.764571,75.3679059 115.312352,79.9034118 116.788747,78.4467529 C118.271473,76.9900941 117.119473,70.0867294 112.802637,65.7482824 C108.496879,61.4066824 103.803429,59.0672 102.325451,60.5270118 L102.325451,60.5270118 Z M84.9568352,48.5411059 C80.2475604,44.6298824 75.3563077,42.7491529 74.0191648,44.3398118 C72.6899341,45.9320471 75.4259341,50.3934588 80.1288791,54.3031059 C84.8365714,58.2127529 91.746989,58.3294118 93.0841319,56.7387529 C94.4133626,55.1449412 89.6613626,52.4507529 84.9568352,48.5411059 L84.9568352,48.5411059 Z M52.9429451,34.7138824 C46.8269011,34.3118824 41.7568352,35.6629176 41.6207473,37.7312471 C41.4846593,39.7995765 46.330022,41.8032706 52.4460659,42.2052706 C58.5621099,42.6088471 63.6305934,41.2562353 63.7682637,39.1894824 C63.9059341,37.1195765 59.058989,35.1158824 52.9429451,34.7138824 L52.9429451,34.7138824 Z M143.224615,119.523271 L140.824088,119.621012 L143.221451,119.472824 C142.990418,115.793341 142.90022,111.350847 141.281407,105.100141 C139.665758,98.8431294 136.553143,90.7731765 130.361143,79.4336235 C130.346901,79.4084 130.329495,79.3847529 130.318418,79.3563765 C121.259077,60.0572235 105.559912,32.9182824 82.493011,16.6948235 C82.6670769,15.5329647 82.7873407,14.2323765 82.7873407,12.8435059 C82.7841758,10.6979294 82.5246593,8.37421176 81.704967,6.17345882 C80.8963516,3.99004706 79.4341978,1.85708235 77.0700659,0.583294118 C76.8516923,0.466635294 76.6238242,0.384658824 76.3785495,0.335788235 C76.2551209,0.312141176 74.9116484,0.0646352941 72.6899341,0.0646352941 C69.6421978,0.0630588235 64.9091868,0.536 59.4087033,2.71941176 C59.0305055,2.70364706 58.4861538,2.68630588 57.8104615,2.68630588 C54.1408352,2.72729412 46.6101099,3.05835294 40.8073846,7.06101176 C38.4400879,7.31797647 30.7416264,8.38682353 24.4578462,12.9081412 C24.1999121,12.8908 23.9024176,12.8813412 23.5653626,12.8813412 C20.5856703,12.8781882 14.4981099,13.668 5.05107692,18.3753412 C4.82004396,18.492 4.62224176,18.6449176 4.44659341,18.8183294 C3.77564835,19.1982588 3.16325275,19.7232235 2.69010989,20.3900706 C1.62514286,21.8561882 1.12351648,23.7842118 1.12035165,26.1820235 C1.12826374,29.5509412 2.10936264,33.9556 4.57476923,39.9272706 C4.83112088,40.5436706 5.32641758,41.0197647 5.95305495,41.2546588 C5.96413187,41.2578118 10.455033,42.9383294 18.1091868,46.0644706 C34.8701538,52.9126588 66.6704176,66.6689412 98.6384176,84.5240471 C98.6574066,84.7305647 98.6843077,84.9339294 98.6843077,85.1467529 C98.6874725,90.6644 99.2413187,95.1163529 100.059429,98.3307765 C100.478769,99.9466588 100.948747,101.247247 101.548484,102.314518 C101.857055,102.847365 102.195692,103.332918 102.698901,103.786941 C103.184703,104.223624 103.937934,104.691835 104.955429,104.701294 C106.158066,104.704447 107.098022,103.971388 107.555341,103.350259 C108.270593,102.385459 108.557011,101.3844 108.822857,100.113765 C109.066549,98.8415529 109.215297,97.3060706 109.259604,95.4206118 C109.300747,93.3822353 109.746989,91.9255765 110.197978,91.1688706 C111.079385,91.6922588 111.962374,92.2061882 112.84378,92.7358824 C113.978374,95.0816706 115.074989,99.3649412 115.029099,105.738612 L115.029099,106.216282 L115.029099,106.384965 C115.032264,109.295129 115.506989,111.986165 116.271297,114.122282 C116.666901,115.194282 117.114725,116.125976 117.755604,116.952047 C118.377495,117.715059 119.304791,118.626259 120.901451,118.673553 C122.221187,118.679859 123.281407,117.869553 123.835253,117.097082 C124.718242,115.898965 125.153407,114.483294 125.545846,112.493788 C125.916132,110.505859 126.161407,107.961435 126.240527,104.679224 C126.262681,103.783788 126.344967,103.012894 126.462066,102.412259 C126.816527,103.135859 127.212132,104.152682 127.546022,105.461153 C128.256527,108.093859 128.862593,111.877388 129.134769,116.876376 C129.424352,122.056659 130.176,125.816541 131.28844,128.507576 C131.853363,129.853882 132.508484,130.949529 133.375648,131.821318 C134.21433,132.671035 135.410637,133.326847 136.743033,133.326847 L136.758857,133.326847 C138.029538,133.326847 139.151473,132.738824 139.939516,131.996306 C142.248264,129.705694 143.196132,125.997835 143.261011,121.000424 C143.254681,120.527482 143.245187,120.030894 143.224615,119.523271 L143.224615,119.523271 Z M8.63367033,37.1495294 C6.60975824,32.0575294 5.92140659,28.4505647 5.92931868,26.1820235 C5.92615385,24.4510588 6.31859341,23.5524706 6.57494505,23.2135294 C6.84712088,22.8840471 6.89617582,22.9344941 7.02593407,22.9124235 C7.09397802,22.9108471 7.40096703,22.9423765 7.92791209,23.3459529 C9.55621978,24.5015059 12.3428571,29.1142588 13.5945495,38.6676706 C13.5961319,38.6881647 13.604044,38.7055059 13.6072088,38.726 C13.611956,38.7606824 13.6135385,38.7969412 13.6214505,38.8316235 C13.6372747,38.9088706 13.6625934,38.9861176 13.6863297,39.0617882 C13.6910769,39.0759765 13.6910769,39.0948941 13.6974066,39.1090824 C13.7005714,39.1153882 13.7005714,39.1216941 13.7021538,39.1264235 C11.3506813,38.1963059 9.62901099,37.5326118 8.63367033,37.1495294 L8.63367033,37.1495294 Z M17.8496703,34.3024235 C16.8590769,28.2046353 15.3288791,24.3848471 13.5407473,21.8814118 C13.1388132,21.306 12.7115604,20.8062588 12.2748132,20.3758824 C18.1788132,18.0190588 21.8816703,17.6722353 23.5701099,17.6706588 C24.0116044,17.6706588 24.317011,17.6943059 24.4910769,17.7132235 C24.5749451,17.7226824 24.6287473,17.7305647 24.6524835,17.7337176 C25.3550769,17.8803294 26.0861538,17.7069176 26.6479121,17.2607765 C29.5848791,14.9055294 33.4317363,13.4756706 36.5316923,12.6953176 C38.0808791,12.3027765 39.4385934,12.0694588 40.395956,11.9323059 C40.8754286,11.8645176 41.2536264,11.8203765 41.5083956,11.7935765 C41.76,11.7683529 41.8628571,11.7620471 41.8628571,11.7604706 C42.3296703,11.7273647 42.7885714,11.5555294 43.162022,11.2717647 C47.250989,8.06049412 54.4636484,7.42832941 57.8167912,7.47089412 C58.4007033,7.47089412 58.8659341,7.48508235 59.1808352,7.49927059 C59.4957363,7.51345882 59.6302418,7.52764706 59.6302418,7.52607059 C60.0084396,7.55602353 60.3898022,7.49454118 60.7426813,7.35108235 C65.7747692,5.27171765 70.059956,4.85237647 72.6978462,4.85237647 C73.6283077,4.85237647 74.3546374,4.9044 74.8293626,4.95169412 C74.9322198,4.96430588 75.0255824,4.97534118 75.1047033,4.9848 C76.0367473,5.59647059 76.7076923,6.53604706 77.2061538,7.84451765 C77.7505055,9.28383529 77.9862857,11.1015059 77.9831209,12.8419294 C77.9847033,13.9028941 77.8929231,14.9212941 77.7663297,15.8198824 C73.9495385,16.5608235 64.3426813,18.5077647 53.4762198,21.3469882 C41.0004396,24.6355059 26.9976264,28.9723765 17.8496703,34.3024235 L17.8496703,34.3024235 Z M21.024,42.0854588 C21.1252747,42.1138353 21.2265495,42.1422118 21.3294066,42.1705882 C22.4323516,42.4811529 23.5432088,42.8059059 24.6698901,43.1558824 C24.7774945,43.1889882 24.8850989,43.2252471 24.9942857,43.2599294 C26.0766593,43.5988706 27.1701099,43.9535765 28.2698901,44.3303529 C28.4471209,44.3902588 28.6259341,44.4485882 28.8015824,44.5100706 C29.9488352,44.9026118 31.1055824,45.3156471 32.2702418,45.7397176 C32.4886154,45.8201176 32.706989,45.9036706 32.9269451,45.9824941 C34.1232527,46.4270588 35.3274725,46.8826588 36.5411868,47.3619059 C36.5506813,47.3650588 36.5601758,47.3697882 36.5696703,47.3729412 C37.7802198,47.8506118 39.0018462,48.3487765 40.2266374,48.8579765 C40.4386813,48.9446824 40.6475604,49.0313882 40.8596044,49.1212471 C42.0559121,49.6225647 43.2585495,50.1364941 44.4643516,50.6646118 C44.6732308,50.7576235 44.8821099,50.8490588 45.0894066,50.9404941 C46.2872967,51.4701882 47.4899341,52.0061882 48.6925714,52.5563765 C48.7495385,52.5831765 48.8065055,52.6084 48.8634725,52.6336235 C50.0993407,53.198 51.3367912,53.7828706 52.5758242,54.3724706 C52.8226813,54.4907059 53.0695385,54.6042118 53.3148132,54.7256 C54.5206154,55.3025882 55.7295824,55.8890353 56.9385495,56.4833647 C57.1426813,56.5826824 57.3483956,56.6867294 57.5541099,56.7892 C58.6744615,57.3456941 59.7963956,57.9069176 60.9167473,58.4744471 C61.093978,58.5674588 61.2727912,58.6541647 61.4516044,58.7456 C62.6431648,59.3541176 63.8331429,59.9689412 65.0215385,60.5900706 C65.3142857,60.7445647 65.607033,60.8959059 65.8997802,61.0504 C67.0691868,61.6668 68.237011,62.2863529 69.4016703,62.9137882 C69.6216264,63.0336 69.8415824,63.1518353 70.0615385,63.2716471 C71.0837802,63.8281412 72.0996923,64.3767529 73.1124396,64.9395529 C73.3988571,65.0972 73.6836923,65.2516941 73.9701099,65.4093412 C75.0778022,66.0225882 76.1807473,66.6342588 77.2789451,67.2553882 C77.6318242,67.4524471 77.9736264,67.6495059 78.3233407,67.8434118 C79.3582418,68.4314353 80.3978901,69.0194588 81.4217143,69.6106353 C81.7144615,69.7745882 82.0008791,69.9464235 82.2936264,70.1103765 C83.2019341,70.6369176 84.1070769,71.1634588 85.0043077,71.6868471 C85.2131868,71.8082353 85.4236484,71.9312 85.6309451,72.0510118 C59.6049231,58.4508 35.3638681,47.9672706 21.024,42.0854588 L21.024,42.0854588 Z M137.406066,127.309459 C137.170286,127.851765 136.915516,128.220659 136.744615,128.408259 C136.66233,128.324706 136.556308,128.198588 136.437626,128.0236 C135.481846,126.727741 134.244396,122.945788 133.931077,116.622565 C133.576615,110.218941 132.725275,105.571506 131.611253,102.338165 C131.047912,100.722282 130.429187,99.4500706 129.647473,98.4332471 C128.881582,97.4605647 127.808703,96.5020706 126.155077,96.4689647 L126.121846,96.4689647 C125.137582,96.4689647 124.21978,96.9308706 123.637451,97.4905176 C123.426989,97.6907294 123.246593,97.9067059 123.085187,98.1242588 C122.92378,98.3307765 122.790857,98.5514824 122.667429,98.7769176 C122.664264,98.7800706 122.661099,98.7800706 122.661099,98.7863765 C122.363604,99.3286824 122.148396,99.9040941 121.968,100.5268 C121.649934,101.680776 121.477451,103.014471 121.43789,104.557835 C121.350857,108.079671 121.054945,110.620941 120.692571,112.232094 C120.627692,112.035035 120.565978,111.834824 120.512176,111.617271 C120.105495,110.185835 119.830154,108.319294 119.830154,106.381812 C119.830154,106.367624 119.830154,106.323482 119.833319,106.244659 L119.833319,105.737035 C119.830154,102.137953 119.535824,99.0859059 119.029451,96.5083765 C119.026286,96.5052235 119.026286,96.5020706 119.026286,96.4989176 C118.928176,96.0070588 118.823736,95.5262353 118.714549,95.0674824 C118.70822,95.0485647 118.705055,95.0359529 118.70189,95.0233412 C118.594286,94.5850824 118.475604,94.1531294 118.353758,93.7432471 C118.320527,93.6455059 118.292044,93.5524941 118.258813,93.4531765 C118.159121,93.1268471 118.054681,92.8005176 117.947077,92.4962588 C117.795165,92.0800706 117.64167,91.6828 117.473934,91.3044471 C116.741275,89.6444235 115.869363,88.3154588 114.793319,87.3175529 C113.726769,86.3291059 112.36589,85.6543765 110.875253,85.6543765 C110.609407,85.6543765 110.34989,85.6764471 110.099868,85.7158588 C109.995429,85.7316235 109.892571,85.7678824 109.789714,85.7899529 C109.647297,85.8230588 109.501714,85.8514353 109.360879,85.894 C109.174154,85.9554824 108.992176,86.0358824 108.810198,86.1194353 C108.764308,86.1415059 108.712088,86.1556941 108.66778,86.1777647 C108.455736,86.2818118 108.251604,86.4079294 108.053802,86.5356235 C108.04589,86.5466588 108.033231,86.5498118 108.026901,86.5561176 C107.408176,86.9738824 106.876484,87.5083059 106.447648,88.1089412 C106.447648,88.1089412 106.444484,88.1089412 106.444484,88.1136706 C106.333714,88.2697412 106.230857,88.4321176 106.135912,88.5944941 C106.107429,88.6433647 106.07578,88.6890824 106.045714,88.7348 C106.045714,88.7379529 106.042549,88.7411059 106.042549,88.7411059 C105.031385,90.4752235 104.510769,92.6649412 104.441143,95.3055294 C104.436396,95.5183529 104.430066,95.7280235 104.422154,95.9250824 C104.412659,95.8919765 104.40633,95.8604471 104.4,95.8273412 C103.949011,93.6234353 103.611956,90.7321882 103.510681,87.2860235 C103.502769,86.9880706 103.49644,86.6853882 103.486945,86.3811294 C103.480615,85.9744 103.474286,85.5708235 103.474286,85.1530588 C103.477451,79.7977882 100.211341,75.8313882 96.229978,72.8329412 L96.0226813,72.6910588 C95.6698022,72.4766588 95.3185055,72.2638353 94.9624615,72.0525882 C94.9482198,72.0447059 94.933978,72.0352471 94.9260659,72.0257882 C92.6505495,70.6526824 90.3196484,69.2622353 87.9539341,67.8717882 C87.908044,67.8418353 87.8558242,67.8150353 87.802022,67.7850824 C87.7561319,67.7551294 87.7054945,67.7283294 87.6564396,67.6999529 C86.324044,66.9180235 84.978989,66.1360941 83.6165275,65.3573176 C83.5927912,65.3415529 83.5706374,65.3289412 83.5484835,65.3194824 C83.3237802,65.1902118 83.1038242,65.0640941 82.8791209,64.9348235 C82.8743736,64.9316706 82.8696264,64.9285176 82.8648791,64.9253647 C81.6780659,64.2474824 80.4817582,63.5743294 79.2791209,62.8932941 C79.2458901,62.8743765 79.2110769,62.8570353 79.1778462,62.8381176 C78.9515604,62.7104235 78.730022,62.5843059 78.5037363,62.4581882 C78.4974066,62.4550353 78.4910769,62.4518824 78.4847473,62.4487294 C74.2818462,60.0934824 69.9998242,57.7776471 65.6798242,55.5422118 C65.6719121,55.5374824 65.6655824,55.5327529 65.6576703,55.5280235 C65.4994286,55.4476235 65.3396044,55.3640706 65.1813626,55.2836706 L65.1718681,55.2805176 C63.8125714,54.5774118 62.4485275,53.8821882 61.0844835,53.2011529 C61.0797363,53.198 61.0718242,53.1948471 61.0670769,53.1916941 C60.9610549,53.1380941 60.855033,53.0860706 60.749011,53.0308941 C60.7395165,53.0277412 60.730022,53.0214353 60.7205275,53.0167059 C59.3026813,52.3072941 57.8832527,51.6089176 56.4622418,50.9247294 C56.4606593,50.9231529 56.4590769,50.9215765 56.4574945,50.9215765 C56.429011,50.9073882 56.4005275,50.8947765 56.3704615,50.8821647 C56.3593846,50.8774353 56.3483077,50.8695529 56.3372308,50.8648235 C55.4431648,50.4344471 54.5490989,50.0088 53.655033,49.5863059 L53.4398242,49.4854118 C52.5774066,49.0802588 51.714989,48.6798353 50.8525714,48.2841412 C50.7971868,48.2589176 50.7402198,48.2336941 50.6848352,48.2068941 C46.042022,46.0833882 41.4276923,44.1206824 36.8956484,42.3739529 C36.8782418,42.3676471 36.8608352,42.3597647 36.845011,42.3534588 C31.7876044,40.4080941 26.8346374,38.7291529 22.0715604,37.4128 C30.4536264,32.9939529 43.2838681,28.9408471 54.6756923,25.9833882 C61.6019341,24.1736 68.0344615,22.7248235 72.7294945,21.7300706 C75.8357802,21.0726824 78.1698462,20.6170824 79.3962198,20.3821882 C79.8203077,20.6785647 80.2349011,20.9828235 80.6542418,21.2855059 C88.7546374,27.1310588 95.9688791,34.5010588 102.282725,42.4196706 C98.8203956,41.6487765 96.0242637,41.8899765 95.616,43.1290824 C95.1222857,44.6267294 98.314022,47.0150824 102.749538,48.4638588 C104.496527,49.0329647 106.164396,49.3687529 107.586989,49.4806824 C115.418374,60.5191294 121.589802,72.0352471 126.041143,81.5886588 C126.093363,81.7053176 126.155077,81.8188235 126.226286,81.9244471 C129.520879,87.9686353 131.878681,92.9944235 133.582945,97.2619294 C133.896264,98.0438588 134.190593,98.8021412 134.459604,99.5304706 L134.497582,99.6376706 C135.323604,101.885718 135.961319,103.897294 136.451868,105.718118 C136.500923,105.912024 136.553143,106.105929 136.606945,106.296682 C138.091253,112.053953 138.160879,115.905271 138.401407,119.726635 C138.421978,120.161741 138.431473,120.593694 138.431473,121.006729 C138.455209,123.823882 137.978901,126.026212 137.406066,127.309459 L137.406066,127.309459 Z" id="Shape" sketch:type="MSShapeGroup"></path>
            </g>
        </g>
    </g>
</svg>