<?xml version="1.0" encoding="UTF-8" standalone="no"?>
<svg width="320px" height="568px" viewBox="0 0 320 568" version="1.1" xmlns="http://www.w3.org/2000/svg" xmlns:xlink="http://www.w3.org/1999/xlink" xmlns:sketch="http://www.bohemiancoding.com/sketch/ns">
    <!-- Generator: Sketch 3.3.2 (12043) - http://www.bohemiancoding.com/sketch -->
    <title>Camera </title>
    <desc>Created with Sketch.</desc>
    <defs></defs>
    <g id="Page-1" stroke="none" stroke-width="1" fill="none" fill-rule="evenodd" sketch:type="MSPage">
        <g id="Camera-" sketch:type="MSArtboardGroup">
            <g id="Camera-Photo" sketch:type="MSLayerGroup" transform="translate(-64.000000, 1.000000)">
                <rect id="Background" fill="#1A1A1A" sketch:type="MSShapeGroup" x="63.3" y="0" width="321.52381" height="570"></rect>
                <g id="Bottom-menu" transform="translate(0.000000, 467.640845)">
                    <rect id="Bottom-menu-background" fill="#000000" sketch:type="MSShapeGroup" x="63.3" y="0" width="321.52381" height="102.359155"></rect>
                    <path d="M358.338855,65.2558193 C358.573564,64.4547575 358.7,63.6030828 358.7,62.7200704 C358.7,58.0091204 355.101222,54.1901408 350.661905,54.1901408 C346.222587,54.1901408 342.62381,58.0091204 342.62381,62.7200704 C342.62381,63.6030828 342.750246,64.4547575 342.984955,65.2558193 C338.84657,65.6037455 335.590476,69.2777567 335.590476,73.7588028 C335.590476,78.4697528 339.189254,82.2887324 343.628571,82.2887324 C346.654941,82.2887324 349.290677,80.5138936 350.661905,77.8915613 C352.033132,80.5138936 354.668868,82.2887324 357.695238,82.2887324 C362.134556,82.2887324 365.733333,78.4697528 365.733333,73.7588028 C365.733333,69.2777567 362.47724,65.6037455 358.338855,65.2558193 Z M350.018288,71.2230539 C346.695392,70.9436883 343.941328,68.5199268 342.984955,65.2558193 C343.197278,65.2379687 343.411924,65.2288732 343.628571,65.2288732 C346.654941,65.2288732 349.290677,67.003712 350.661905,69.6260443 C350.398726,70.1293472 350.182127,70.6638693 350.018288,71.2230539 Z M358.338855,65.2558193 C357.382481,68.5199268 354.628417,70.9436883 351.305522,71.2230539 L351.305522,71.2230539 C351.54023,72.0241157 351.666667,72.8757904 351.666667,73.7588028 C351.666667,75.2582059 351.302102,76.6672501 350.661905,77.8915613 C350.021708,76.6672501 349.657143,75.2582059 349.657143,73.7588028 C349.657143,72.8757904 349.783579,72.0241157 350.018288,71.2230539 C350.230611,71.2409046 350.445257,71.25 350.661905,71.25 C350.878552,71.25 351.093198,71.2409046 351.305522,71.2230539 L351.305522,71.2230539 C351.141682,70.6638693 350.925084,70.1293472 350.661905,69.6260443 C352.033132,67.003712 354.668868,65.2288732 357.695238,65.2288732 C357.911886,65.2288732 358.126532,65.2379687 358.338855,65.2558193 Z" id="Filters-icon" fill="#636363" sketch:type="MSShapeGroup"></path>
                    <text id="PHOTO" sketch:type="MSTextLayer" font-family="Helvetica" font-size="13.0457746" font-weight="normal" letter-spacing="2.49999976" fill="#8E7D37">
                        <tspan x="190.904762" y="24.0387324">PHOT</tspan>
                        <tspan x="237.143732" y="24.0387324">O</tspan>
                    </text>
                    <ellipse id="Photo-indicator" fill="#ECD04B" sketch:type="MSShapeGroup" cx="220.042857" cy="7.02464789" rx="3.01428571" ry="3.01056338"></ellipse>
                    <text id="VIDEO" sketch:type="MSTextLayer" font-family="Helvetica" font-size="13.0457746" font-weight="normal" letter-spacing="2.49999976" fill="#767676">
                        <tspan x="120.571429" y="24.0387324">VIDEO</tspan>
                    </text>
                    <text id="SQUARE" sketch:type="MSTextLayer" font-family="Helvetica" font-size="13.0457746" font-weight="normal" letter-spacing="2.49999976" fill="#767676">
                        <tspan x="268.271429" y="24.0387324">SQUARE</tspan>
                    </text>
                    <text id="PANO" sketch:type="MSTextLayer" font-family="Helvetica" font-size="13.0457746" font-weight="normal" letter-spacing="2.49999976" fill="#767676">
                        <tspan x="349.657143" y="24.0387324">PANO</tspan>
                    </text>
                    <text id="TIME-LAPSE" sketch:type="MSTextLayer" font-family="Helvetica" font-size="13.0457746" font-weight="normal" letter-spacing="2.49999976" fill="#767676">
                        <tspan x="0" y="24.0387324">TIME-LAPSE</tspan>
                    </text>
                    <rect id="Photo-library-icon" fill="#5E5E5E" sketch:type="MSShapeGroup" x="75.3571429" y="45.1584507" width="44.2095238" height="44.1549296"></rect>
                    <g id="Photo-button" transform="translate(185.880952, 32.112676)" sketch:type="MSShapeGroup">
                        <ellipse id="Photo-button-background" fill="#F3FFFF" cx="32.6547619" cy="32.6144366" rx="32.6547619" ry="32.6144366"></ellipse>
                        <path d="M32.6547619,60.2112676 C47.9149155,60.2112676 60.2857143,47.8557455 60.2857143,32.6144366 C60.2857143,17.3731277 47.9149155,5.01760563 32.6547619,5.01760563 C17.3946083,5.01760563 5.02380952,17.3731277 5.02380952,32.6144366 C5.02380952,47.8557455 17.3946083,60.2112676 32.6547619,60.2112676 Z" stroke="#000000" stroke-width="2" fill="#FFFFFF"></path>
                    </g>
                </g>
                <g id="Photo-menu" transform="translate(152.723810, 44.154930)" sketch:type="MSShapeGroup">
                    <path d="M0,175.616197 L0,251.883803 L76.3619048,251.883803 L76.3619048,175.616197 L0,175.616197 Z" id="Focus" stroke="#D4C88F" stroke-linecap="square"></path>
                    <path d="M110.021429,210.237676 L112.030952,208.230634 L110.021429,210.237676 Z M99.9738095,210.237676 L97.9642857,208.230634 L99.9738095,210.237676 Z M97.9642857,215.255282 L93.9452381,215.255282 L97.9642857,215.255282 Z M99.9738095,220.272887 L97.9642857,222.27993 L99.9738095,220.272887 Z M110.021429,220.272887 L112.030952,222.27993 L110.021429,220.272887 Z M104.997619,208.230634 L104.997619,204.216549 L104.997619,208.230634 Z M112.030952,215.255282 L116.05,215.255282 L112.030952,215.255282 Z M104.997619,222.27993 L104.997619,226.294014 L104.997619,222.27993 Z M104.997619,143.001761 L104.997619,198.195423 L104.997619,143.001761 Z M104.997619,232.315141 L104.997619,287.508803 L104.997619,232.315141 Z M104.997619,218.767606 C106.93982,218.767606 108.514286,217.195085 108.514286,215.255282 C108.514286,213.315479 106.93982,211.742958 104.997619,211.742958 C103.055418,211.742958 101.480952,213.315479 101.480952,215.255282 C101.480952,217.195085 103.055418,218.767606 104.997619,218.767606 Z" id="Light-indicator" stroke="#E3D29A" stroke-linecap="square"></path>
                    <path d="M15.5738095,286.505282 L15.5738095,143.001761 L15.5738095,143.001761 L124.088095,143.001761 L124.088095,1.50528169 L124.088095,143.001761 L15.5738095,143.001761 L15.5738095,286.505282 L-88.9214286,286.505282 L15.5738095,286.505282 Z M15.5738095,286.505282 L15.5738095,422.984155 L15.5738095,286.505282 L124.088095,286.505282 L124.088095,143.001761 L124.088095,143.001761 L231.597619,143.001761 L124.088095,143.001761 L124.088095,286.505282 L231.597619,286.505282 L124.088095,286.505282 L124.088095,423.987676 L124.088095,286.505282 L15.5738095,286.505282 Z M15.5738095,143.001761 L15.5738095,0.501760563 L15.5738095,143.001761 L-88.9214286,143.001761 L15.5738095,143.001761 L15.5738095,143.001761 Z" id="Grid" stroke="#424242" stroke-linecap="square"></path>
                    <g id="Flash" transform="translate(49.233333, 385.352113)">
                        <rect id="Flash-background" fill="#FBD434" x="0" y="0" width="38.1809524" height="23.0809859"></rect>
                        <path d="M21.2339353,10.1067028 L23.4816578,3.01056338 L14.0666667,12.1856137 L17.951779,11.970762 L15.7040564,19.0669014 L25.1190476,9.89185111 L21.2339353,10.1067028 Z" id="Flash-icon" fill="#000000"></path>
                    </g>
                </g>
                <g id="Top-menu" transform="translate(63.300000, 0.000000)">
                    <rect id="Top-menu-background" fill="#000000" sketch:type="MSShapeGroup" x="0" y="0" width="321.52381" height="44.1549296"></rect>
                    <g id="Refresh" transform="translate(275.304762, 10.035211)" sketch:type="MSShapeGroup">
                        <path d="M23.6430583,3.6443662 L23.0492381,3.14260563 L22.6244793,3.02314024 L21.6877208,1.6530953 C21.0634776,0.740115977 19.6553233,0 18.5643647,0 L12.5832543,0 C11.4825156,0 10.0813928,0.744135889 9.46543002,1.64500495 L8.48834718,3.07402577 L8.09838095,3.14260563 L7.50689116,3.6443662 L1.36647619,3.6443662 C0.334244095,3.6443662 6.91616077e-17,4.46009683 6.91616077e-17,5.4665493 L6.91616077e-17,12.0445434 L6.91616077e-17,21.2588028 C6.91616077e-17,22.2652553 0.836625048,23.0809859 1.86885714,23.0809859 L29.2787619,23.0809859 C30.310994,23.0809859 31.147619,22.2652553 31.147619,21.2588028 L31.147619,5.4665493 C31.147619,4.46009683 30.6928035,3.6443662 29.6605714,3.6443662 L23.6430583,3.6443662 Z" id="Refresh-icon-2" stroke="#FFFFFF"></path>
                        <path d="M11.871735,7.31944079 C11.871735,7.25007996 11.3798711,6.3709474 11.3798711,6.3709474 C11.3798711,6.3709474 11.9106752,6.17209498 12.6748155,5.93796703 C13.0515476,5.8225386 13.484995,5.69853599 13.9395112,5.5855612 C14.8045308,5.37055147 15.7458621,5.19548495 16.5177804,5.19548495 C17.8745044,5.19548495 19.4537671,5.71755108 21.0716666,7.31944079 C22.6895661,8.9213305 22.7683898,9.83832978 22.7683898,11.0472788 L24.106418,11.0472788 L22.0993758,14.9173875 L20.0923335,11.0472788 L21.7648687,11.0472788 C21.7648687,8.90987663 18.3652119,6.37094746 16.5177804,6.37094746 C14.670349,6.37094746 11.871735,7.73438207 11.871735,7.31944079 Z M19.5955065,16.8075162 C19.5955065,16.876877 20.0873704,17.7560096 20.0873704,17.7560096 C20.0873704,17.7560096 19.5565662,17.954862 18.792426,18.18899 C18.4156939,18.3044184 17.9822464,18.428421 17.5277302,18.5413958 C16.6627107,18.7564055 15.7213794,18.931472 14.949461,18.931472 C13.592737,18.931472 12.0134744,18.4094059 10.3955749,16.8075162 C8.77767536,15.2056265 8.69885161,14.2886272 8.69885161,13.0796782 L7.36082344,13.0796782 L9.3678657,9.20956946 L11.374908,13.0796782 L9.70237274,13.0796782 C9.70237274,15.2170804 13.1020295,17.7560095 14.949461,17.7560095 C16.7968925,17.7560095 19.5955065,16.3925749 19.5955065,16.8075162 Z" id="Refresh-icon-1" fill="#F7F7F7"></path>
                    </g>
                    <path d="M220.565333,9.04193602 C227.537012,9.31584706 233.104762,15.0472497 233.104762,22.0774648 C233.104762,29.2824475 227.256748,35.1232394 220.042857,35.1232394 C212.828966,35.1232394 206.980952,29.2824475 206.980952,22.0774648 C206.980952,18.4749734 208.442956,15.2135298 210.806696,12.8527089 L211.545589,13.5906894 C209.370948,15.7626446 208.025905,18.7631727 208.025905,22.0774648 C208.025905,28.7060489 213.406077,34.0795775 220.042857,34.0795775 C226.679637,34.0795775 232.05981,28.7060489 232.05981,22.0774648 C232.05981,15.6237227 226.959719,10.3597003 220.565333,10.0864924 L220.565333,15.815493 L219.520381,15.815493 L219.520381,9.03169014 L220.565333,9.03169014 L220.565333,9.04193602 L220.565333,9.04193602 Z M221.146318,23.1844355 C221.758437,22.5723165 221.75905,21.5804885 221.147687,20.9691254 C220.536324,20.3577624 213.217963,15.3312436 213.217963,15.3312436 C213.217963,15.3312436 218.319645,22.5744411 218.931008,23.1858042 C219.542371,23.7971672 220.534199,23.7965544 221.146318,23.1844355 Z" id="Timer-icon" fill="#F7F7F7" sketch:type="MSShapeGroup"></path>
                    <text id="HDR" fill="#D8D8D8" sketch:type="MSTextLayer" font-family="Helvetica" font-size="13.0457746" font-weight="normal">
                        <tspan x="112.533333" y="26.0457746" fill="#F7F7F7">HDR</tspan>
                    </text>
                    <g id="Flash-setting" transform="translate(10.047619, 11.038732)" fill="#F7F7F7">
                        <text id="Auto" sketch:type="MSTextLayer" font-family="Helvetica" font-size="13.0457746" font-weight="normal">
                            <tspan x="22.1047619" y="15.0070423">Auto</tspan>
                        </text>
                        <path d="M8.7961933,9.31368303 L11.5547619,0 L0,12.0422535 L4.76809242,11.7602606 L2.00952381,21.0739437 L13.5642857,9.03169014 L8.7961933,9.31368303 Z" id="Flash-setting-icon" sketch:type="MSShapeGroup"></path>
                    </g>
                </g>
            </g>
        </g>
    </g>
</svg>