<?xml version="1.0" encoding="UTF-8" standalone="no"?>
<svg width="320px" height="568px" viewBox="0 0 320 568" version="1.1" xmlns="http://www.w3.org/2000/svg" xmlns:xlink="http://www.w3.org/1999/xlink" xmlns:sketch="http://www.bohemiancoding.com/sketch/ns">
    <!-- Generator: Sketch 3.3.2 (12043) - http://www.bohemiancoding.com/sketch -->
    <title>Lading Page</title>
    <desc>Created with Sketch.</desc>
    <defs>
        <filter x="-50%" y="-50%" width="200%" height="200%" filterUnits="objectBoundingBox" id="filter-1">
            <feOffset dx="0" dy="2" in="SourceAlpha" result="shadowOffsetOuter1"></feOffset>
            <feGaussianBlur stdDeviation="2" in="shadowOffsetOuter1" result="shadowBlurOuter1"></feGaussianBlur>
            <feColorMatrix values="0 0 0 0 0   0 0 0 0 0   0 0 0 0 0  0 0 0 0.35 0" in="shadowBlurOuter1" type="matrix" result="shadowMatrixOuter1"></feColorMatrix>
            <feMerge>
                <feMergeNode in="shadowMatrixOuter1"></feMergeNode>
                <feMergeNode in="SourceGraphic"></feMergeNode>
            </feMerge>
        </filter>
    </defs>
    <g id="Page-1" stroke="none" stroke-width="1" fill="none" fill-rule="evenodd" sketch:type="MSPage">
        <g id="Lading-Page" sketch:type="MSArtboardGroup">
            <text id="PIZZA-BLASTER" sketch:type="MSTextLayer" font-family="Montserrat" font-size="36" font-weight="normal" fill="#000000">
                <tspan x="19" y="299">PIZZA BLASTER</tspan>
            </text>
            <text id="A-Game-For-Young-Peo" sketch:type="MSTextLayer" font-family="Montserrat" font-size="20" font-weight="normal" fill="#000000">
                <tspan x="31" y="336">A Game For Young People</tspan>
            </text>
            <g id="Status-Bar-Black" sketch:type="MSLayerGroup" fill="#030303">
                <path d="M7.89333333,13 C9.18936155,13 10.24,11.7687831 10.24,10.25 C10.24,8.73121694 9.18936155,7.5 7.89333333,7.5 C6.59730512,7.5 5.54666667,8.73121694 5.54666667,10.25 C5.54666667,11.7687831 6.59730512,13 7.89333333,13 Z M13.8666667,13 C15.1626949,13 16.2133333,11.7687831 16.2133333,10.25 C16.2133333,8.73121694 15.1626949,7.5 13.8666667,7.5 C12.5706385,7.5 11.52,8.73121694 11.52,10.25 C11.52,11.7687831 12.5706385,13 13.8666667,13 Z M19.84,13 C21.1360282,13 22.1866667,11.7687831 22.1866667,10.25 C22.1866667,8.73121694 21.1360282,7.5 19.84,7.5 C18.5439718,7.5 17.4933333,8.73121694 17.4933333,10.25 C17.4933333,11.7687831 18.5439718,13 19.84,13 Z M25.8133333,13 C27.1093615,13 28.16,11.7687831 28.16,10.25 C28.16,8.73121694 27.1093615,7.5 25.8133333,7.5 C24.5173051,7.5 23.4666667,8.73121694 23.4666667,10.25 C23.4666667,11.7687831 24.5173051,13 25.8133333,13 Z M25.8133333,12.5 C26.8737201,12.5 27.7333333,11.4926407 27.7333333,10.25 C27.7333333,9.00735931 26.8737201,8 25.8133333,8 C24.7529466,8 23.8933333,9.00735931 23.8933333,10.25 C23.8933333,11.4926407 24.7529466,12.5 25.8133333,12.5 Z M31.7866667,13 C33.0826949,13 34.1333333,11.7687831 34.1333333,10.25 C34.1333333,8.73121694 33.0826949,7.5 31.7866667,7.5 C30.4906385,7.5 29.44,8.73121694 29.44,10.25 C29.44,11.7687831 30.4906385,13 31.7866667,13 Z M31.7866667,12.5 C32.8470534,12.5 33.7066667,11.4926407 33.7066667,10.25 C33.7066667,9.00735931 32.8470534,8 31.7866667,8 C30.7262799,8 29.8666667,9.00735931 29.8666667,10.25 C29.8666667,11.4926407 30.7262799,12.5 31.7866667,12.5 Z" id="Mobile-Signal" sketch:type="MSShapeGroup"></path>
                <text id="Carrier" sketch:type="MSTextLayer" font-family="Helvetica Neue" font-size="10.24" font-weight="normal" letter-spacing="0.200000003">
                    <tspan x="37.5466667" y="13.5">Sketch</tspan>
                </text>
                <path d="M82.0432391,12.4385043 C81.6011724,11.8454456 80.9406819,11.4689119 80.2027205,11.4689119 C79.4786195,11.4689119 78.8291067,11.8314341 78.387341,12.4053177 L80.2325667,14.5 L82.0432391,12.4385043 Z M83.9027169,10.3214425 C82.9822117,9.19174563 81.6652277,8.48445596 80.2027205,8.48445596 C78.752659,8.48445596 77.4456545,9.17975893 76.5263102,10.2926936 L77.4564682,11.3486 C78.1373482,10.5053708 79.1156463,9.97668394 80.2027205,9.97668394 C81.3029407,9.97668394 82.291738,10.518235 82.9735437,11.3793293 L83.9027169,10.3214425 L83.9027169,10.3214425 Z M85.76,8.20687933 C84.3630573,6.53943672 82.3898197,5.5 80.2027205,5.5 C78.0266755,5.5 76.0623357,6.52895605 74.6666667,8.18164431 L75.5964228,9.23709441 C76.7539881,7.85431655 78.389668,6.99222798 80.2027205,6.99222798 C82.0275222,6.99222798 83.672645,7.86552609 84.8314622,9.26404272 L85.76,8.20687933 Z" id="Wi-Fi" sketch:type="MSShapeGroup"></path>
                <text id="9:41-AM" sketch:type="MSTextLayer" font-family="Helvetica Neue" font-size="10.24" font-weight="normal" sketch:alignment="middle" letter-spacing="0.100000001">
                    <tspan x="140.059173" y="13.5">9:41 AM</tspan>
                </text>
                <text id="100%" sketch:type="MSTextLayer" font-family="Helvetica Neue" font-size="10.24" font-weight="normal" sketch:alignment="right">
                    <tspan x="264.51968" y="13.5">100%</tspan>
                </text>
                <path d="M295.906592,5.5 C295.074524,5.5 294.4,6.16802155 294.4,7.00530324 L294.4,13.4946968 C294.4,14.3260528 295.07208,15 295.906592,15 L312.093408,15 C312.925476,15 313.6,14.3319784 313.6,13.4946968 L313.6,7.00530324 C313.6,6.17394722 312.92792,5.5 312.093408,5.5 L295.906592,5.5 Z M314.026667,8.5 L314.026667,12 L314.666667,12 C315.020129,12 315.306667,11.7135803 315.306667,11.3580461 L315.306667,9.14195395 C315.306667,8.78741257 315.022593,8.5 314.666667,8.5 L314.026667,8.5 Z M295.826092,6 C295.274125,6 294.826667,6.45699692 294.826667,7.00844055 L294.826667,13.4915594 C294.826667,14.0485058 295.280182,14.5 295.826092,14.5 L312.173908,14.5 C312.725875,14.5 313.173333,14.0430031 313.173333,13.4915594 L313.173333,7.00844055 C313.173333,6.45149422 312.719818,6 312.173908,6 L295.826092,6 Z M295.758009,6.5 C295.479284,6.5 295.253333,6.71637201 295.253333,6.99209595 L295.253333,13.5079041 C295.253333,13.7796811 295.474514,14 295.758009,14 L312.241991,14 C312.520716,14 312.746667,13.783628 312.746667,13.5079041 L312.746667,6.99209595 C312.746667,6.72031886 312.525486,6.5 312.241991,6.5 L295.758009,6.5 Z" id="Battery" sketch:type="MSShapeGroup"></path>
            </g>
            <g id="noun_30194_cc" sketch:type="MSLayerGroup" transform="translate(62.000000, 86.000000)" fill="#010101">
                <path d="M111.719604,45.6460118 C112.191692,43.3610588 105.649341,37.3765647 98.9102857,35.9934118 C92.1731978,34.6082941 86.3311099,35.3411294 85.860989,37.6241176 C85.3908681,39.9071059 90.4717143,42.8816706 97.2088022,44.2648235 C103.949824,45.6499412 111.253418,47.9309647 111.719604,45.6460118 L111.719604,45.6460118 Z M127.19622,75.4329176 C125.355077,77.2522353 128.215143,83.1109882 133.569407,88.5178588 C138.929571,93.9286588 143.339659,99.5811176 145.174901,97.7657294 C147.018011,95.9503412 145.586011,87.3468941 140.219945,81.9400235 C134.867648,76.5292235 129.033429,73.6136 127.19622,75.4329176 L127.19622,75.4329176 Z M105.606066,60.4952588 C99.7521758,55.6208235 93.6720769,53.2769294 92.0099341,55.2593176 C90.3576264,57.2436706 93.7586264,62.8037882 99.6046484,67.6762588 C105.456571,72.5487294 114.046604,72.6941176 115.708747,70.7117294 C117.361055,68.7254118 111.454055,65.3677294 105.606066,60.4952588 L105.606066,60.4952588 Z M65.811022,43.2628235 C58.2084396,42.7618235 51.9060659,44.4455765 51.7369011,47.0232706 C51.5677363,49.6009647 57.5907912,52.0981059 65.1933736,52.5991059 C72.795956,53.1020706 79.0963626,51.4163529 79.2674945,48.8406235 C79.4386264,46.2609647 73.4136044,43.7638235 65.811022,43.2628235 L65.811022,43.2628235 Z M178.036154,148.958106 L175.052165,149.079918 L178.03222,148.895235 C177.745033,144.309612 177.632912,138.773071 175.620637,130.983012 C173.612297,123.185094 169.743143,113.127765 162.046143,98.9956353 C162.02844,98.9642 162.006802,98.9347294 161.993033,98.8993647 C150.731769,74.8474353 131.216835,41.0250235 102.543396,20.8062353 C102.759769,19.3582471 102.909264,17.7373647 102.909264,16.0064588 C102.90533,13.3324941 102.582736,10.4365176 101.563813,7.69378824 C100.558659,4.97267059 98.7411209,2.31442353 95.8023736,0.726941176 C95.5309231,0.581552941 95.2476703,0.479388235 94.9427802,0.418482353 C94.7893516,0.389011765 93.1193407,0.0805529412 90.3576264,0.0805529412 C86.5691209,0.0785882353 80.6857253,0.668 73.8483187,3.38911765 C73.3781978,3.36947059 72.7015385,3.34785882 71.8616154,3.34785882 C67.3000659,3.39894118 57.938956,3.81152941 50.7258462,8.79991765 C47.7831648,9.12016471 38.2135495,10.4522353 30.4024615,16.0870118 C30.0818352,16.0654 29.712033,16.0536118 29.2930549,16.0536118 C25.5891319,16.0496824 18.021956,17.034 6.27876923,22.9006118 C5.99158242,23.046 5.7457033,23.2365765 5.52736264,23.4526941 C4.69334066,23.9261882 3.9320989,24.5804353 3.34395604,25.4115059 C2.02014286,27.2386824 1.39659341,29.6415176 1.39265934,32.6298353 C1.40249451,36.8284118 2.62205495,42.3178 5.68669231,49.7601059 C6.00535165,50.5283059 6.62103297,51.1216471 7.39997802,51.4143882 C7.41374725,51.4183176 12.9961868,53.5126941 22.5107253,57.4087059 C43.3455385,65.9433882 82.875033,83.0874118 122.613033,105.339671 C122.636637,105.597047 122.670077,105.850494 122.670077,106.115729 C122.674011,112.9922 123.362473,118.540529 124.379429,122.546565 C124.900692,124.560388 125.484901,126.181271 126.230407,127.511376 C126.613978,128.175447 127.034923,128.780576 127.66044,129.346412 C128.264319,129.890635 129.200626,130.474153 130.465429,130.485941 C131.960374,130.489871 133.128791,129.576282 133.697264,128.802188 C134.586363,127.599788 134.942396,126.3522 135.272857,124.768647 C135.57578,123.183129 135.760681,121.269506 135.815758,118.919718 C135.866901,116.379353 136.421604,114.563965 136.982209,113.620906 C138.077846,114.273188 139.175451,114.913682 140.271088,115.573824 C141.681451,118.497306 143.044604,123.835412 142.98756,131.778718 L142.98756,132.374024 L142.98756,132.584247 C142.991495,136.211094 143.581604,139.564847 144.531681,142.227024 C145.02344,143.563024 145.58011,144.724165 146.376758,145.753671 C147.149802,146.704588 148.302484,147.840188 150.28722,147.899129 C151.927725,147.906988 153.245637,146.897129 153.934099,145.934424 C155.031703,144.441247 155.572637,142.676941 156.060462,140.197482 C156.520747,137.719988 156.825637,134.548953 156.923989,130.458435 C156.951527,129.342482 157.053813,128.381741 157.199374,127.633188 C157.639989,128.534988 158.131747,129.802224 158.546791,131.432929 C159.429989,134.713988 160.183363,139.429282 160.521692,145.659365 C160.881659,152.115388 161.816,156.801212 163.198824,160.154965 C163.901055,161.832824 164.715407,163.198294 165.793341,164.284776 C166.835868,165.343753 168.322945,166.161071 169.979187,166.161071 L169.998857,166.161071 C171.578385,166.161071 172.973011,165.428235 173.952593,164.502859 C176.822495,161.648141 178.000747,157.027153 178.081396,150.799035 C178.073527,150.209624 178.061725,149.590741 178.036154,148.958106 L178.036154,148.958106 Z M10.7321319,46.2982941 C8.2162967,39.9522941 7.36063736,35.4570471 7.37047253,32.6298353 C7.36653846,30.4725882 7.85436264,29.3527059 8.17302198,28.9302941 C8.51135165,28.5196706 8.57232967,28.5825412 8.73362637,28.5550353 C8.81820879,28.5530706 9.19981319,28.5923647 9.85483516,29.0953294 C11.8789121,30.5354588 15.3428571,36.2841882 16.8987802,48.1903059 C16.9007473,48.2158471 16.9105824,48.2374588 16.9145165,48.263 C16.9204176,48.3062235 16.9223846,48.3514118 16.9322198,48.3946353 C16.9518901,48.4909059 16.9833626,48.5871765 17.0128681,48.6814824 C17.0187692,48.6991647 17.0187692,48.7227412 17.0266374,48.7404235 C17.0305714,48.7482824 17.0305714,48.7561412 17.0325385,48.7620353 C14.1095275,47.6028588 11.9693956,46.7757176 10.7321319,46.2982941 L10.7321319,46.2982941 Z M22.1881319,42.7500353 C20.9567692,35.1505529 19.0546484,30.3900706 16.8319011,27.2701176 C16.3322747,26.553 15.8011758,25.9301882 15.2582747,25.3938235 C22.5972747,22.4565882 27.2001319,22.0243529 29.298956,22.0223882 C29.8477582,22.0223882 30.2273956,22.0518588 30.4437692,22.0754353 C30.548022,22.0872235 30.6149011,22.0970471 30.6444066,22.1009765 C31.5177692,22.2836941 32.4265385,22.0675765 33.1248352,21.5115647 C36.7756484,18.5762941 41.5575055,16.7943059 45.4109231,15.8217765 C47.3366484,15.3325647 49.0243626,15.0417882 50.2144176,14.8708588 C50.8104286,14.7863765 51.2805495,14.7313647 51.5972418,14.6979647 C51.91,14.6665294 52.0378571,14.6586706 52.0378571,14.6567059 C52.6181319,14.6154471 53.1885714,14.4012941 53.6527912,14.0476471 C58.7356044,10.0455412 67.7013407,9.25769412 71.8694835,9.31074118 C72.5953187,9.31074118 73.1736264,9.32842353 73.5650659,9.34610588 C73.9565055,9.36378824 74.1237033,9.38147059 74.1237033,9.37950588 C74.5938242,9.41683529 75.0678791,9.34021176 75.5065275,9.16142353 C81.7616923,6.56997647 87.0884176,6.04736471 90.3674615,6.04736471 C91.5240769,6.04736471 92.4269451,6.1122 93.0170549,6.17114118 C93.1449121,6.18685882 93.260967,6.20061176 93.3593187,6.2124 C94.5179011,6.97470588 95.3519231,8.14567059 95.9715385,9.77637647 C96.6481978,11.5701529 96.9412857,13.8354588 96.9373516,16.0044941 C96.9393187,17.3267412 96.8252308,18.5959412 96.6678681,19.7158235 C91.9233846,20.6392353 79.9815275,23.0656471 66.4739121,26.6040824 C50.9658242,30.7024588 33.5595495,36.1073647 22.1881319,42.7500353 L22.1881319,42.7500353 Z M26.134,52.4497882 C26.2598901,52.4851529 26.3857802,52.5205176 26.5136374,52.5558824 C27.8846593,52.9429294 29.2655165,53.3476588 30.666044,53.7838235 C30.7998022,53.8250824 30.9335604,53.8702706 31.0692857,53.9134941 C32.4147363,54.3359059 33.773956,54.7779647 35.141044,55.2475294 C35.3613516,55.3221882 35.5836264,55.3948824 35.801967,55.4715059 C37.2280659,55.9607176 38.665967,56.4754706 40.1137033,57.0039765 C40.3851538,57.1041765 40.6566044,57.2083059 40.930022,57.3065412 C42.4170989,57.8605882 43.914011,58.4283882 45.4227253,59.0256588 C45.4345275,59.0295882 45.4463297,59.0354824 45.4581319,59.0394118 C46.9629121,59.6347176 48.4814615,60.2555647 50.0039451,60.8901647 C50.2675275,60.9982235 50.5271758,61.1062824 50.7907582,61.2182706 C52.2778352,61.8430471 53.7727802,62.4835412 55.2716593,63.1417176 C55.5313077,63.2576353 55.790956,63.3715882 56.0486374,63.4855412 C57.5376813,64.1456824 59.0326264,64.8136824 60.5275714,65.4993647 C60.5983846,65.5327647 60.6691978,65.5642 60.740011,65.5956353 C62.2762637,66.299 63.8144835,67.0279059 65.3546703,67.7627059 C65.6615275,67.9100588 65.9683846,68.0515176 66.2732747,68.2028 C67.7721538,68.9218824 69.274967,69.6527529 70.7777802,70.3934471 C71.0315275,70.5172235 71.2872418,70.6468941 71.542956,70.7746 C72.9356154,71.4681412 74.3302418,72.1675765 75.7229011,72.8748706 C75.9432088,72.9907882 76.1654835,73.0988471 76.3877582,73.2128 C77.8689341,73.9711765 79.3481429,74.7374118 80.8253846,75.5115059 C81.1892857,75.7040471 81.5531868,75.8926588 81.9170879,76.0852 C83.3707253,76.8534 84.8223956,77.6255294 86.2701319,78.4074824 C86.5435495,78.5568 86.816967,78.7041529 87.0903846,78.8534706 C88.3610879,79.5470118 89.6239231,80.2307294 90.8828242,80.9321294 C91.2388571,81.1286 91.5929231,81.3211412 91.948956,81.5176118 C93.3258791,82.2818824 94.6969011,83.0441882 96.062022,83.8182824 C96.5006703,84.0638706 96.9255495,84.3094588 97.3602637,84.5511176 C98.6467033,85.2839529 99.939044,86.0167882 101.211714,86.7535529 C101.575615,86.9578824 101.931648,87.1720353 102.295549,87.3763647 C103.424626,88.0325765 104.549769,88.6887882 105.665077,89.3410706 C105.924725,89.4923529 106.186341,89.6456 106.444022,89.7949176 C74.0922308,72.8454 43.9592527,59.7801059 26.134,52.4497882 L26.134,52.4497882 Z M170.803374,158.661788 C170.510286,159.337647 170.193593,159.797388 169.981154,160.031188 C169.878868,159.927059 169.747077,159.769882 169.599549,159.5518 C168.411462,157.936812 166.873242,153.223482 166.483769,145.343047 C166.043154,137.362412 164.98489,131.570459 163.600099,127.540847 C162.899835,125.527024 162.130725,123.941506 161.159011,122.674271 C160.206967,121.462047 158.873319,120.267506 156.817769,120.226247 L156.776462,120.226247 C155.552967,120.226247 154.412088,120.801906 153.68822,121.499376 C153.426604,121.748894 153.202363,122.018059 153.001725,122.289188 C152.801088,122.546565 152.635857,122.821624 152.482429,123.102576 C152.478495,123.106506 152.47456,123.106506 152.47456,123.114365 C152.104758,123.790224 151.837242,124.507341 151.613,125.2834 C151.217626,126.721565 151.00322,128.383706 150.954044,130.307153 C150.845857,134.696306 150.478022,137.863412 150.027571,139.871341 C149.946923,139.625753 149.870209,139.376235 149.80333,139.105106 C149.297802,137.321153 148.955538,134.994941 148.955538,132.580318 C148.955538,132.562635 148.955538,132.507624 148.959473,132.409388 L148.959473,131.776753 C148.955538,127.291329 148.58967,123.487659 147.96022,120.275365 C147.956286,120.271435 147.956286,120.267506 147.956286,120.263576 C147.83433,119.650588 147.704505,119.051353 147.56878,118.479624 C147.560912,118.456047 147.556978,118.440329 147.553044,118.424612 C147.419286,117.878424 147.271758,117.340094 147.120297,116.829271 C147.078989,116.707459 147.043582,116.591541 147.002275,116.467765 C146.878352,116.061071 146.748527,115.654376 146.614769,115.275188 C146.425934,114.756506 146.235132,114.2614 146.026626,113.789871 C145.11589,111.721035 144.032055,110.064788 142.694473,108.821129 C141.368692,107.589259 139.677044,106.748365 137.824099,106.748365 C137.493637,106.748365 137.171044,106.775871 136.860253,106.824988 C136.730429,106.844635 136.602571,106.889824 136.474714,106.917329 C136.297681,106.958588 136.116714,106.993953 135.941648,107.047 C135.709538,107.123624 135.48333,107.223824 135.257121,107.327953 C135.200077,107.355459 135.135165,107.373141 135.080088,107.400647 C134.816505,107.530318 134.562758,107.687494 134.316879,107.846635 C134.307044,107.860388 134.291308,107.864318 134.28344,107.872176 C133.51433,108.392824 132.853407,109.058859 132.320341,109.807412 C132.320341,109.807412 132.316407,109.807412 132.316407,109.813306 C132.178714,110.007812 132.050857,110.210176 131.932835,110.412541 C131.897429,110.473447 131.858088,110.530424 131.820714,110.5874 C131.820714,110.591329 131.81678,110.595259 131.81678,110.595259 C130.559846,112.756435 129.912692,115.485412 129.826143,118.776294 C129.820242,119.041529 129.812374,119.302835 129.802538,119.548424 C129.790736,119.507165 129.782868,119.467871 129.775,119.426612 C129.214396,116.679953 128.795418,113.076682 128.669527,108.781835 C128.659692,108.410506 128.651824,108.033282 128.640022,107.654094 C128.632154,107.1472 128.624286,106.644235 128.624286,106.123588 C128.62822,99.4494824 124.568264,94.5062824 119.619209,90.7694118 L119.361527,90.5925882 C118.922879,90.3253882 118.486198,90.0601529 118.043615,89.7968824 C118.025912,89.7870588 118.008209,89.7752706 117.998374,89.7634824 C115.16978,88.0522235 112.272341,86.3193529 109.331626,84.5864824 C109.274582,84.5491529 109.20967,84.5157529 109.142791,84.4784235 C109.085747,84.4410941 109.022802,84.4076941 108.961824,84.3723294 C107.305582,83.3978353 105.633604,82.4233412 103.939989,81.4527765 C103.910484,81.4331294 103.882945,81.4174118 103.855407,81.4056235 C103.576088,81.2445176 103.30267,81.0873412 103.023352,80.9262353 C103.017451,80.9223059 103.011549,80.9183765 103.005648,80.9144471 C101.530374,80.0696235 100.043297,79.2306941 98.5483516,78.3819412 C98.507044,78.3583647 98.4637692,78.3367529 98.4224615,78.3131765 C98.1411758,78.1540353 97.8657912,77.9968588 97.5845055,77.8396824 C97.5766374,77.8357529 97.5687692,77.8318235 97.5609011,77.8278941 C92.3364615,74.8926235 87.0136703,72.0064706 81.6436703,69.2205176 C81.6338352,69.2146235 81.625967,69.2087294 81.6161319,69.2028353 C81.4194286,69.1026353 81.2207582,68.9985059 81.0240549,68.8983059 L81.0122527,68.8943765 C79.3225714,68.0181176 77.626989,67.1516824 75.9314066,66.3029294 C75.9255055,66.299 75.9156703,66.2950706 75.9097692,66.2911412 C75.777978,66.2243412 75.6461868,66.1595059 75.5143956,66.0907412 C75.5025934,66.0868118 75.4907912,66.0789529 75.478989,66.0730588 C73.7165275,65.1889412 71.9520989,64.3185765 70.1857033,63.4658941 C70.1837363,63.4639294 70.1817692,63.4619647 70.1798022,63.4619647 C70.1443956,63.4442824 70.108989,63.4285647 70.0716154,63.4128471 C70.0578462,63.4069529 70.0440769,63.3971294 70.0303077,63.3912353 C68.9189341,62.8548706 67.8075604,62.3244 66.6961868,61.7978588 L66.4286703,61.6721176 C65.3566374,61.1671882 64.2846044,60.6681529 63.2125714,60.1750118 C63.1437253,60.1435765 63.0729121,60.1121412 63.0040659,60.0787412 C57.2327912,57.4322824 51.4969231,54.9862235 45.8633407,52.8093294 C45.8417033,52.8014706 45.8200659,52.7916471 45.8003956,52.7837882 C39.5137582,50.3593412 33.3569451,48.2669294 27.4361758,46.6264 C37.8555495,41.1193294 53.8042527,36.0680706 67.9649231,32.3822824 C76.5746264,30.1268 84.5706154,28.3212353 90.4068022,27.0815059 C94.2680879,26.2622235 97.1694615,25.6944235 98.6939121,25.4016824 C99.2210769,25.7710471 99.7364396,26.1502353 100.257703,26.5274588 C110.326945,33.8125882 119.294648,42.9975882 127.14311,52.8663059 C122.839242,51.9055647 119.363495,52.2061647 118.856,53.7504235 C118.242286,55.6168941 122.209791,58.5934235 127.723385,60.3989882 C129.894989,61.1082471 131.968242,61.5267294 133.736604,61.6662235 C143.471451,75.4230941 151.142879,89.7752706 156.676143,101.681388 C156.741055,101.826776 156.817769,101.968235 156.906286,102.099871 C161.001648,109.632553 163.932527,115.896035 166.051022,121.214494 C166.440495,122.188988 166.806363,123.134012 167.140758,124.041706 L167.187967,124.175306 C168.214758,126.976976 169.007473,129.483941 169.617253,131.753176 C169.678231,131.994835 169.743143,132.236494 169.810022,132.474224 C171.655099,139.649329 171.741648,144.449106 172.040637,149.211553 C172.066209,149.753812 172.078011,150.292141 172.078011,150.806894 C172.107516,154.317824 171.51544,157.062518 170.803374,158.661788 L170.803374,158.661788 Z" id="Shape" sketch:type="MSShapeGroup"></path>
            </g>
            <rect id="Rectangle-6" fill="#D0011B" filter="url(#filter-1)" sketch:type="MSShapeGroup" x="69" y="453" width="183" height="58" rx="11"></rect>
            <text id="I’m-Ready!" sketch:type="MSTextLayer" font-family="Montserrat" font-size="24" font-weight="normal" fill="#000000">
                <tspan x="95" y="488">I’m Ready!</tspan>
            </text>
        </g>
    </g>
</svg>